<svg width="21" height="20" viewBox="0 0 21 20" fill="none" xmlns="http://www.w3.org/2000/svg">
<path fill-rule="evenodd" clip-rule="evenodd" d="M20.3501 10.227C20.3501 9.51788 20.2864 8.83606 20.1682 8.18152H10.7501V12.0497H16.1319C15.9001 13.2997 15.1955 14.3588 14.1364 15.0679V17.577H17.3682C19.2592 15.8361 20.3501 13.2724 20.3501 10.227Z" fill="#4285F4"/>
<path fill-rule="evenodd" clip-rule="evenodd" d="M10.7499 20C13.4499 20 15.7135 19.1046 17.3681 17.5773L14.1363 15.0682C13.2408 15.6682 12.0954 16.0228 10.7499 16.0228C8.14536 16.0228 5.94081 14.2637 5.15445 11.9H1.81354V14.4909C3.45899 17.7591 6.84081 20 10.7499 20Z" fill="#34A853"/>
<path fill-rule="evenodd" clip-rule="evenodd" d="M5.15455 11.8999C4.95455 11.2999 4.84091 10.659 4.84091 9.99994C4.84091 9.34085 4.95455 8.69994 5.15455 8.09994V5.50903H1.81364C1.13636 6.85903 0.75 8.38631 0.75 9.99994C0.75 11.6136 1.13636 13.1409 1.81364 14.4909L5.15455 11.8999Z" fill="#FBBC05"/>
<path fill-rule="evenodd" clip-rule="evenodd" d="M10.7499 3.97715C12.2181 3.97715 13.5363 4.4817 14.5726 5.47261L17.4408 2.60442C15.709 0.990787 13.4454 -0.00012207 10.7499 -0.00012207C6.84081 -0.00012207 3.45899 2.24079 1.81354 5.50897L5.15445 8.09988C5.94081 5.73624 8.14536 3.97715 10.7499 3.97715Z" fill="#EA4335"/>
</svg>
