<svg width="17" height="17" viewBox="0 0 17 17" fill="none" xmlns="http://www.w3.org/2000/svg">
<path fill-rule="evenodd" clip-rule="evenodd" d="M8.99799 16.9952C10.5802 16.9952 12.127 16.5261 13.4425 15.647C14.7581 14.7679 15.7835 13.5185 16.389 12.0567C16.9945 10.5949 17.153 8.98637 16.8443 7.43452C16.5356 5.88267 15.7737 4.45721 14.6548 3.33839C13.536 2.21957 12.1106 1.45764 10.5587 1.14896C9.00686 0.840279 7.39833 0.998706 5.93652 1.60421C4.47471 2.20971 3.22528 3.23509 2.34623 4.55068C1.46718 5.86627 0.997986 7.41299 0.997986 8.99524C0.997986 11.117 1.84084 13.1518 3.34113 14.6521C4.84142 16.1524 6.87625 16.9952 8.99799 16.9952ZM8.19799 12.9952V14.5952H9.79799V12.9952H8.19799ZM8.19799 10.9952V11.3952H9.79799C9.76631 10.9709 9.83447 10.545 9.99701 10.1517C10.1596 9.75839 10.412 9.40863 10.734 9.13044L11.454 8.39524C11.9306 7.91749 12.1982 7.27011 12.198 6.59524C12.198 5.74655 11.8608 4.93262 11.2607 4.3325C10.6606 3.73238 9.84668 3.39524 8.99799 3.39524C8.14929 3.39524 7.33536 3.73238 6.73524 4.3325C6.13513 4.93262 5.79799 5.74655 5.79799 6.59524C5.79799 6.80742 5.88227 7.0109 6.0323 7.16093C6.18233 7.31096 6.38581 7.39524 6.59799 7.39524C6.81016 7.39524 7.01364 7.31096 7.16367 7.16093C7.3137 7.0109 7.39799 6.80742 7.39799 6.59524C7.39799 6.1709 7.56656 5.76393 7.86662 5.46387C8.16667 5.16381 8.57364 4.99524 8.99799 4.99524C9.42233 4.99524 9.8293 5.16381 10.1294 5.46387C10.4294 5.76393 10.598 6.1709 10.598 6.59524C10.5991 6.80532 10.5579 7.01348 10.4768 7.20728C10.3957 7.40108 10.2764 7.57656 10.126 7.72324L9.13399 8.73124C8.53573 9.33301 8.19933 10.1467 8.19799 10.9952V10.9952Z" fill="#CCCCCC"/>
</svg>
