<svg width="20" height="20" viewBox="0 0 20 20" fill="none" xmlns="http://www.w3.org/2000/svg">
<path d="M9 14.9887H10.9978V8.99547H9V14.9887Z" fill="#999999"/>
<path d="M9 6.99774H10.9978V5H9V6.99774Z" fill="#999999"/>
<path fill-rule="evenodd" clip-rule="evenodd" d="M20 10C20 15.5228 15.5228 20 10 20C4.47715 20 0 15.5228 0 10C0 4.47715 4.47715 0 10 0C15.5228 0 20 4.47715 20 10ZM18.7 10C18.7 14.8049 14.8049 18.7 10 18.7C5.19512 18.7 1.3 14.8049 1.3 10C1.3 5.19512 5.19512 1.3 10 1.3C14.8049 1.3 18.7 5.19512 18.7 10Z" fill="#999999"/>
</svg>
