<svg xmlns="http://www.w3.org/2000/svg" width="36" height="36" viewBox="0 0 36 36">
  <path id="icon-Gamer_Room" data-name="icon-Gamer Room" d="M35.222,10.426,18.825.5,17.994,0l-.831.5L.777,10.426,0,10.9V36H36V10.9ZM12.359,32.773a6.016,6.016,0,0,1,11.167,0Zm8.38-12.241a5.174,5.174,0,0,0-5.609.01,1.366,1.366,0,0,1-1.706-.083,1.022,1.022,0,0,1,.058-1.559,7.52,7.52,0,0,1,8.866.012,1.007,1.007,0,0,1,.057,1.533,1.339,1.339,0,0,1-1.666.087m-.809,6.292a2.805,2.805,0,1,1,0-3.96,2.818,2.818,0,0,1,0,3.96m5.848-9.74a1.26,1.26,0,0,1-1.662.051,9.863,9.863,0,0,0-12.247.081,1.311,1.311,0,0,1-1.74-.04c-.012-.012-.029-.03-.051-.055a1.106,1.106,0,0,1,.1-1.586,12.212,12.212,0,0,1,15.558-.027,1.061,1.061,0,0,1,.037,1.576" fill="#eee"/>
</svg>
