<svg width="45" height="30" viewBox="0 0 45 30" fill="none" xmlns="http://www.w3.org/2000/svg">
<g clip-path="url(#clip0_1353_32)">
<path fill-rule="evenodd" clip-rule="evenodd" d="M22.4767 6.17042C23.8874 4.34435 26.7456 0.84654 29.6281 0.298449C32.3016 -0.209879 36.0577 0.183544 39.5843 4.92382C40.4536 6.11584 42.4382 9.73662 43.4224 14.6835C44.6526 20.8673 42.6842 26.3129 39.9614 27.8711C37.2388 29.4293 32.1704 29.8885 28.4471 24.1313C25.4684 19.5255 22.843 15.2467 21.9025 13.683C20.4974 16.1816 17.3722 21.6217 16.1125 23.3931C16.0909 23.4235 16.0692 23.4541 16.0472 23.4849C14.4674 25.7078 11.9195 29.2928 7.61626 28.9208C3.25324 28.5435 1.23563 25.8864 0.28429 21.7201C-0.667045 17.5539 0.907448 10.501 2.95774 7.08928C5.00803 3.67759 8.09155 -0.0293294 12.717 0.0854869C17.4989 0.204186 20.2334 3.48493 21.9773 5.57701C22.1536 5.78845 22.3196 5.98776 22.4767 6.17042ZM28.2774 4.79557C27.0592 5.64985 25.3039 7.98661 24.6071 9.09137C25.2997 10.0813 26.3977 11.8703 27.6166 13.8561C29.5693 17.0378 31.8325 20.7252 33.2363 22.4419C35.5163 25.2303 38.5178 24.5579 39.2724 21.7039C40.0268 18.8498 39.2395 14.3885 38.764 12.5677C38.2883 10.7471 36.9376 6.7743 34.3184 4.9425C31.6993 3.11071 29.8247 3.71048 28.2774 4.79557ZM15.652 5.83939C16.7513 6.50513 18.794 9.05878 19.678 10.2524C19.3216 10.8142 18.9734 11.3646 18.6331 11.9023C15.1291 17.4402 12.4715 21.6405 10.5425 23.3168C8.60041 25.0044 5.25846 24.3619 4.87136 20.7813C4.48427 17.2007 5.45203 10.9878 8.35523 7.17493C11.2584 3.36205 14.2777 5.0072 15.652 5.83939Z" fill="url(#paint0_linear_1353_32)"/>
<path d="M39.2724 21.7036C39.2959 21.6143 39.318 21.5235 39.3386 21.4312L42.9604 23.6808C42.2634 25.6753 41.1892 27.1681 39.9614 27.8707C37.2388 29.4289 32.1704 29.8883 28.4471 24.1311C26.701 21.4312 25.0763 18.8436 23.8411 16.8495L23.852 16.8347C23.4922 16.275 23.1178 15.6594 22.7126 14.9932C21.7168 13.3558 18.7309 9.02819 18.7309 9.02819C17.7431 7.79822 16.4494 6.32204 15.652 5.83914C14.2777 5.00696 11.2584 3.36181 8.35523 7.17468C5.45203 10.9875 4.48427 17.2005 4.87136 20.781C5.21906 23.9973 7.9507 24.8429 9.91056 23.7588L12.4882 27.4614C11.1803 28.4352 9.58127 29.0904 7.61626 28.9205C3.25324 28.5432 1.23563 25.8861 0.28429 21.7199C-0.667045 17.5537 0.907449 10.5007 2.95774 7.08904C5.00803 3.67735 8.09155 -0.0295735 12.717 0.0852428C17.0633 0.19313 19.7183 2.91326 21.4753 4.97879C21.5016 5.01928 21.5306 5.05891 21.5624 5.09762C23.4756 7.42181 25.0877 9.91796 26.3908 11.9359C26.6924 12.4029 26.9774 12.8442 27.2459 13.252L27.6166 13.8559C29.5694 17.0376 31.8325 20.7249 33.2363 22.4417C35.5163 25.2301 38.5178 24.5577 39.2724 21.7036Z" fill="url(#paint1_linear_1353_32)"/>
</g>
<defs>
<linearGradient id="paint0_linear_1353_32" x1="40.8826" y1="6.92052" x2="11.2203" y2="25.6812" gradientUnits="userSpaceOnUse">
<stop stop-color="white"/>
<stop offset="1" stop-color="white"/>
</linearGradient>
<linearGradient id="paint1_linear_1353_32" x1="5.57428" y1="3.68335" x2="5.52221" y2="28.1076" gradientUnits="userSpaceOnUse">
<stop stop-color="white"/>
<stop offset="1" stop-color="white"/>
</linearGradient>
<clipPath id="clip0_1353_32">
<rect width="44.4" height="30" fill="white"/>
</clipPath>
</defs>
</svg>
